<svg width="70" height="73" viewBox="0 0 70 73" fill="none" xmlns="http://www.w3.org/2000/svg">
<circle cx="35" cy="35" r="35" fill="#339933"/>
<g clip-path="url(#clip0_1_840)">
<mask id="mask0_1_840" style="mask-type:alpha" maskUnits="userSpaceOnUse" x="19" y="55" width="33" height="26">
<path d="M40.0776 55.8887C43.1064 55.8887 45.7187 57.6672 46.9302 60.2363C48.2479 60.3821 49.3266 61.3169 49.686 62.5576C51.0808 63.6467 51.979 65.3423 51.979 67.249C51.9789 70.5354 49.3142 73.1992 46.0278 73.1992C45.7656 73.1992 45.5076 73.1804 45.2544 73.1475C44.2895 77.5095 40.4019 80.7725 35.7495 80.7725C30.6967 80.7723 26.5434 76.9239 26.0601 71.998C25.6959 72.0754 25.3184 72.1172 24.9312 72.1172C21.9435 72.1172 19.5211 69.6956 19.521 66.708C19.521 63.9717 21.5528 61.7108 24.1899 61.3496C24.7869 60.0429 26.1048 59.1349 27.6353 59.1348C28.0116 59.1348 28.3752 59.1898 28.7183 59.292C29.4956 58.5965 30.4975 58.1474 31.6021 58.0664C32.0437 56.7985 33.25 55.8887 34.6685 55.8887C35.465 55.8888 36.1936 56.177 36.7583 56.6533C37.7606 56.1638 38.887 55.8887 40.0776 55.8887Z" fill="white"/>
</mask>
<g mask="url(#mask0_1_840)">
<circle cx="35" cy="35" r="35" fill="white"/>
</g>
</g>
<path d="M39.4892 36.2493C38.6984 37.004 37.8645 38.0256 37.1066 39.3957C36.3577 36.6996 35.4138 34.7231 34.4596 33.2761C38.8379 18.6894 17.5 18.1667 17.5 18.1667C17.5 18.1667 18.1229 36.3975 29.2667 35.9789C29.244 34.7582 29.0545 33.5239 28.789 32.3665C28.6154 31.6119 28.4089 30.8923 28.1956 30.2282C27.4831 28.0255 26.6787 26.4619 26.6787 26.4619C27.491 27.5503 28.2104 28.5889 28.8457 29.5652C31.0321 32.9197 32.2256 35.5287 32.7804 36.9067C34.1499 39.8403 35.3797 44.6656 35.3797 52.5512C35.3797 53.4438 36.107 54.1667 36.9988 54.1667C37.8928 54.1667 38.6189 53.4438 38.6189 52.5512C38.6189 49.9954 38.4953 47.7214 38.2718 45.6928C38.788 43.2174 39.5674 41.4604 40.3741 40.2159C40.904 39.2079 41.8808 37.4814 43.1969 35.7187C44.369 34.1507 45.8144 32.5532 47.4493 31.4128C47.4493 31.4128 44.0967 35.1134 43.88 38.7361C53.1403 39.218 53.5 24.6902 53.5 24.6902C53.5 24.6902 36.5529 25.2672 39.4892 36.2493Z" fill="white"/>
<defs>
<clipPath id="clip0_1_840">
<rect width="35.8333" height="16.6667" fill="white" transform="translate(17.5 55.8333)"/>
</clipPath>
</defs>
</svg>
